<svg version="1.1" id="Layer_1" xmlns="http://www.w3.org/2000/svg" xmlns:xlink="http://www.w3.org/1999/xlink" x="0px" y="0px"
	 width="100%" viewBox="0 0 395 217" enable-background="new 0 0 395 217" xml:space="preserve">
<path fill="#FEFEFE" opacity="1.000000" stroke="none" 
	d="
M227.000000,218.000000 
	C151.333359,218.000000 76.166710,218.000000 1.000050,218.000000 
	C1.000034,145.666718 1.000034,73.333420 1.000017,1.000099 
	C132.666580,1.000066 264.333160,1.000066 395.999817,1.000033 
	C395.999878,73.333229 395.999878,145.666458 395.999939,217.999847 
	C339.833344,218.000000 283.666656,218.000000 227.000000,218.000000 
M226.312363,96.961243 
	C223.502182,96.780685 222.204117,95.464432 222.402924,92.478317 
	C222.544601,90.350266 222.377151,88.130447 221.916794,86.046776 
	C220.507034,79.666008 217.002487,77.465561 210.685303,79.106339 
	C208.744583,79.610413 207.016953,80.934883 204.759384,82.108452 
	C204.759384,78.501259 205.012589,75.331604 204.626831,72.241714 
	C204.485123,71.106560 202.835236,69.294594 201.868256,69.291336 
	C199.074814,69.281921 196.278809,70.035522 193.483810,70.489532 
	C194.034012,71.836861 194.386276,73.326714 195.213028,74.474922 
	C195.666275,75.104370 196.920227,75.157265 197.891724,75.497681 
	C197.891724,81.201286 198.085678,86.697296 197.766129,92.163292 
	C197.677460,93.679955 196.065872,95.108025 195.151566,96.575851 
	C194.537659,97.561417 193.345383,98.627129 193.470215,99.506798 
	C193.591614,100.362434 195.025269,101.616318 195.945389,101.672714 
	C199.870377,101.913277 203.818588,101.775063 208.941528,101.775063 
	C207.997757,99.468719 207.765076,97.678925 206.752991,96.674355 
	C204.458847,94.397301 203.874756,90.083977 206.070938,87.753242 
	C208.345505,85.339294 212.023865,82.949402 213.961227,85.892235 
	C215.583435,88.356339 214.375809,92.860252 213.961517,96.407249 
	C213.777832,97.979630 212.460358,99.419594 211.401901,101.397354 
	C217.160675,101.397354 221.546097,101.397354 225.853455,101.397354 
	C226.227081,99.346321 226.529907,97.683922 227.520416,95.587936 
	C228.373108,96.591843 229.149490,97.674629 230.091736,98.585938 
	C234.062744,102.426544 238.909454,103.129517 243.934097,101.653992 
	C248.577942,100.290306 251.491409,96.924217 251.992645,91.989983 
	C252.477631,87.215797 251.281784,82.376144 246.598816,80.784912 
	C242.528107,79.401726 237.385773,78.908005 233.387390,80.160782 
	C228.604553,81.659340 226.264420,86.313454 226.969681,91.823196 
	C227.150421,93.235138 226.963058,94.694199 226.312363,96.961243 
M226.299530,151.988052 
	C223.533920,151.820053 222.440689,150.618332 222.364029,147.593018 
	C222.015121,133.824600 217.950516,131.325775 205.675735,136.964005 
	C205.568695,137.013168 205.369614,136.862015 204.756699,136.635803 
	C204.756699,134.039734 204.600204,131.256470 204.797272,128.498459 
	C205.030487,125.234810 203.752716,123.865059 200.484848,124.190811 
	C199.001816,124.338646 197.416611,123.938644 196.019852,124.314812 
	C195.009262,124.586967 193.541214,125.706749 193.516830,126.487267 
	C193.481781,127.609001 194.396118,128.932114 195.250351,129.846970 
	C195.781921,130.416245 196.950638,130.390564 197.901886,130.650650 
	C197.901886,136.613525 198.006882,142.270905 197.817825,147.918472 
	C197.777542,149.122116 196.860504,151.135391 196.017349,151.327576 
	C192.415329,152.148453 193.302002,154.301315 193.664581,156.769226 
	C198.570923,156.769226 203.154999,156.769226 208.948227,156.769226 
	C207.941788,154.616196 207.550095,152.780243 206.444214,151.632248 
	C204.488159,149.601685 203.844284,144.898315 206.047989,142.984177 
	C208.379257,140.959229 211.877869,138.104904 214.065155,141.488434 
	C215.583679,143.837433 214.418030,148.113297 213.965622,151.462631 
	C213.744675,153.098495 212.414566,154.584549 211.274796,156.723297 
	C217.029846,156.723297 221.442154,156.723297 225.849731,156.723297 
	C226.202499,154.652435 226.511322,152.839432 227.546997,150.747635 
	C232.980301,157.244812 240.540955,159.326431 246.260468,155.967896 
	C250.593384,153.423553 252.356812,149.514755 252.064743,144.710251 
	C251.761368,139.719971 248.434814,135.824188 243.420456,134.481705 
	C238.456421,133.152710 234.032928,134.176697 230.050415,137.666107 
	C225.668427,141.505524 227.481995,146.546326 226.299530,151.988052 
M132.937698,66.496796 
	C133.631332,65.673660 134.324982,64.850533 135.598816,63.567734 
	C136.750076,60.872337 135.151642,59.445122 132.936172,59.583580 
	C128.494690,59.861153 128.066666,57.457157 128.312027,54.050434 
	C128.467163,51.896324 128.251694,49.716915 128.376633,47.558941 
	C128.594772,43.791946 127.133400,42.181950 123.149605,42.224098 
	C107.663712,42.387966 92.175232,42.307522 76.687714,42.316467 
	C68.618301,42.321125 68.618301,42.319687 68.629532,50.462173 
	C68.640594,58.483562 68.640594,58.483562 59.740376,60.868061 
	C61.406197,63.095543 62.763096,64.909943 64.042046,66.620117 
	C63.448299,68.106438 61.950623,70.115822 61.944363,72.129845 
	C61.834602,107.433342 61.909180,142.737396 61.938251,178.041336 
	C61.942970,183.772797 62.888615,184.706161 68.528854,184.703690 
	C99.004875,184.690369 129.481186,184.629776 159.956589,184.764832 
	C164.542374,184.785156 166.075531,183.125671 166.029480,178.619278 
	C165.855896,161.634369 165.827347,144.644943 166.046204,127.661110 
	C166.103851,123.187927 163.990753,118.022942 168.935135,114.436729 
	C169.462112,114.054512 169.237961,112.545395 169.246994,111.557999 
	C169.271347,108.894119 169.223038,106.229660 169.222275,103.565437 
	C169.220551,97.545982 168.754089,97.094681 162.652390,97.101768 
	C153.372025,97.112541 144.091629,97.104591 134.556473,97.104591 
	C134.556473,88.759529 134.671783,80.951324 134.477188,73.150856 
	C134.427170,71.145668 133.400772,69.164833 132.937698,66.496796 
M294.138824,79.242142 
	C289.844604,79.923180 285.550354,80.604218 280.231476,81.447762 
	C276.289215,77.607666 273.073059,77.416893 266.549408,81.514404 
	C263.029816,76.876068 258.386078,79.974052 253.832092,79.837708 
	C254.480316,81.892159 256.102020,83.052147 256.824890,84.625183 
	C257.818817,86.788025 258.540009,89.253677 258.596619,91.608376 
	C258.635376,93.221428 257.595276,96.077148 256.601746,96.283951 
	C252.665253,97.103287 254.248505,99.314270 254.434830,102.324364 
	C259.815887,101.699944 264.806091,100.666969 269.796173,100.667793 
	C274.922913,100.668640 280.049469,101.679108 286.302460,102.372688 
	C285.534637,99.619957 285.558624,97.810150 284.667725,96.844063 
	C281.039215,92.909340 281.402161,87.796013 286.001373,85.747040 
	C287.327484,85.156265 289.870300,85.292015 290.791290,86.188164 
	C293.156433,88.489601 292.133698,94.286415 289.679321,96.681549 
	C288.896637,97.445343 288.375183,98.920036 288.485138,99.992455 
	C288.553345,100.657562 290.010803,101.639404 290.884521,101.683151 
	C294.632294,101.870781 298.394867,101.763191 302.614380,101.763191 
	C302.431763,99.798424 302.599731,97.544846 302.152466,97.415298 
	C297.132294,95.961189 299.625580,91.818367 298.740784,88.878670 
	C297.776062,85.673248 296.138611,82.670311 294.138824,79.242142 
M275.473633,134.280197 
	C272.037750,134.847702 268.601868,135.415192 264.870178,136.031540 
	C262.439758,132.376022 258.046936,135.284195 254.009354,134.351517 
	C254.015198,136.868866 252.424210,139.332458 256.342926,140.016357 
	C257.114532,140.151016 258.105927,141.905823 258.135468,142.938034 
	C258.306061,148.909378 258.218750,154.888092 258.218750,161.076172 
	C253.933578,161.294937 252.857544,163.332596 254.387894,167.148224 
	C256.775879,167.148224 259.086395,167.148224 261.396942,167.148224 
	C263.830933,167.148224 266.264923,167.148224 268.880341,167.148224 
	C268.880341,165.150925 268.880341,163.694443 268.880341,161.916718 
	C264.579254,161.985016 263.789978,159.726959 265.061279,156.225174 
	C275.252747,158.836426 278.868256,157.160049 282.501892,150.102997 
	C285.461914,144.354126 282.856079,138.604538 275.473633,134.280197 
M314.968658,78.820480 
	C309.789551,78.752464 304.772919,83.090599 303.978302,89.105827 
	C303.347015,93.884537 304.901489,97.843903 309.358185,100.382576 
	C314.938660,103.561417 321.533295,102.763245 327.435608,97.818886 
	C326.702759,96.556206 325.935120,95.233566 325.187347,93.945168 
	C317.533325,97.643959 313.001678,98.096489 311.524231,92.629417 
	C314.454224,92.629417 317.454254,92.989700 320.325684,92.536156 
	C323.740662,91.996780 326.685760,90.199814 326.956909,86.265968 
	C327.229645,82.309570 324.410980,80.339050 321.196198,79.196800 
	C319.538483,78.607803 317.573608,78.883293 314.968658,78.820480 
z"/>
<path fill="#131313" opacity="1.000000" stroke="none" 
	d="
M132.822922,67.172813 
	C133.400772,69.164833 134.427170,71.145668 134.477188,73.150856 
	C134.671783,80.951324 134.556473,88.759529 134.556473,97.104591 
	C144.091629,97.104591 153.372025,97.112541 162.652390,97.101768 
	C168.754089,97.094681 169.220551,97.545982 169.222275,103.565437 
	C169.223038,106.229660 169.271347,108.894119 169.246994,111.557999 
	C169.237961,112.545395 169.462112,114.054512 168.935135,114.436729 
	C163.990753,118.022942 166.103851,123.187927 166.046204,127.661110 
	C165.827347,144.644943 165.855896,161.634369 166.029480,178.619278 
	C166.075531,183.125671 164.542374,184.785156 159.956589,184.764832 
	C129.481186,184.629776 99.004875,184.690369 68.528854,184.703690 
	C62.888615,184.706161 61.942970,183.772797 61.938251,178.041336 
	C61.909180,142.737396 61.834602,107.433342 61.944363,72.129845 
	C61.950623,70.115822 63.448299,68.106438 64.042046,66.620117 
	C62.763096,64.909943 61.406197,63.095543 59.740376,60.868061 
	C68.640594,58.483562 68.640594,58.483562 68.629532,50.462173 
	C68.618301,42.319687 68.618301,42.321125 76.687714,42.316467 
	C92.175232,42.307522 107.663712,42.387966 123.149605,42.224098 
	C127.133400,42.181950 128.594772,43.791946 128.376633,47.558941 
	C128.251694,49.716915 128.467163,51.896324 128.312027,54.050434 
	C128.066666,57.457157 128.494690,59.861153 132.936172,59.583580 
	C135.151642,59.445122 136.750076,60.872337 134.860352,63.770905 
	C131.166489,64.378136 128.211075,64.782196 125.255669,65.186256 
	C125.359688,65.848442 125.463707,66.510628 125.567719,67.172813 
	C127.986122,67.172813 130.404526,67.172813 132.822922,67.172813 
M115.633690,59.944183 
	C116.496826,59.904903 117.359970,59.865623 118.877457,59.760178 
	C120.104897,59.198265 121.332329,58.636349 122.559761,58.074429 
	C122.120193,57.718567 121.680618,57.362705 121.070747,56.311703 
	C120.715355,55.516247 120.359970,54.720795 120.133354,53.726326 
	C120.133354,53.726326 120.028564,53.513702 120.103653,52.831997 
	C121.088890,51.305042 122.074127,49.778084 123.760017,47.165226 
	C121.547493,47.387901 120.300095,47.513443 118.228706,47.774502 
	C117.127228,47.904972 116.025742,48.035442 114.134850,47.951866 
	C112.784065,48.035652 111.433281,48.119434 109.569550,48.008472 
	C109.391701,48.051102 109.213844,48.093727 108.114395,47.950111 
	C103.403816,47.987381 98.693245,48.024647 93.144783,47.843937 
	C91.418282,47.830837 89.691788,47.817738 87.345116,47.269985 
	C82.898277,47.507713 78.451447,47.745445 73.359695,48.502232 
	C71.905670,58.874268 72.618660,59.833969 82.632622,59.937206 
	C83.495956,59.891151 84.359283,59.845100 85.857918,59.817234 
	C86.497742,59.820530 87.137566,59.823826 88.635269,59.944374 
	C89.498085,59.905220 90.360893,59.866066 91.981400,59.816593 
	C93.244118,59.817795 94.506844,59.818996 96.589203,59.933067 
	C97.136101,59.895412 97.682991,59.857754 98.748550,59.805202 
	C99.092735,59.803329 99.436920,59.801456 100.729935,59.932880 
	C104.894341,59.889534 109.058746,59.846191 113.739067,59.813255 
	C114.084480,59.817780 114.429886,59.822304 115.633690,59.944183 
M127.212395,108.500076 
	C127.212395,96.904839 127.212395,85.309601 127.212395,73.351974 
	C109.089043,73.351974 91.789047,73.493248 74.494354,73.252968 
	C70.152634,73.192650 68.796600,74.304634 68.823776,78.791939 
	C69.013519,110.122192 68.920013,141.454132 68.936691,172.785538 
	C68.937531,174.370346 69.118126,175.955078 69.230835,177.798370 
	C71.575668,177.798370 73.425003,177.577545 75.202667,177.840759 
	C80.084267,178.563538 81.423676,176.559647 81.245552,171.785507 
	C80.879204,161.966339 81.183594,152.123703 81.100967,142.291656 
	C81.066399,138.178070 82.680183,136.139847 87.017868,136.214050 
	C94.681091,136.345139 102.348671,136.236298 110.014328,136.205017 
	C113.478523,136.190887 115.142303,137.717590 115.084282,141.338562 
	C114.964142,148.836197 115.045746,156.337051 115.044899,163.836594 
	C115.044388,168.416580 115.044800,172.996552 115.044800,177.572601 
	C119.450981,177.572601 123.060585,177.572601 127.212395,177.572601 
	C127.212395,154.731308 127.212395,132.115692 127.212395,108.500076 
M134.530472,160.498566 
	C134.530472,166.105743 134.530472,171.712921 134.530472,177.789276 
	C141.210220,177.789276 147.336029,177.546249 153.431061,177.874496 
	C157.511261,178.094238 158.861542,176.916077 158.805038,172.677277 
	C158.576904,155.560471 158.719177,138.438797 158.693344,121.318970 
	C158.691223,119.912758 158.453140,118.506905 158.341431,117.283890 
	C150.161484,117.283890 142.430023,117.283890 134.530411,117.283890 
	C134.530411,131.583374 134.530411,145.541260 134.530472,160.498566 
M108.513420,174.866425 
	C108.516205,165.732086 108.638313,156.594589 108.396240,147.466736 
	C108.358887,146.058655 106.725548,143.567078 105.700134,143.497604 
	C99.964729,143.109009 94.189331,143.310669 88.383118,143.310669 
	C88.383118,155.069748 88.383118,166.265930 88.383118,177.804382 
	C94.300232,177.804382 99.920044,177.903046 105.530006,177.712250 
	C106.524628,177.678436 107.478256,176.439438 108.513420,174.866425 
M134.837692,108.900513 
	C142.902695,109.067680 150.968643,109.348969 159.031738,109.282898 
	C160.287109,109.272606 161.529465,107.677116 162.777832,106.814651 
	C161.438019,106.026825 160.119476,104.603760 158.754807,104.558052 
	C151.813416,104.325584 144.856934,104.571785 137.912430,104.391663 
	C134.953430,104.314911 134.001297,105.437340 134.837692,108.900513 
M99.499245,65.875854 
	C92.900467,65.875854 86.301689,65.875854 79.702904,65.875854 
	C79.714470,66.161751 79.726036,66.447647 79.737602,66.733543 
	C92.267632,66.733543 104.797668,66.733543 118.256767,66.733543 
	C117.032051,66.197449 116.739128,65.958954 116.444252,65.956528 
	C111.129066,65.912643 105.813637,65.897263 99.499245,65.875854 
z"/>
<path fill="#1A1A1A" opacity="1.000000" stroke="none" 
	d="
M294.466614,79.410629 
	C296.138611,82.670311 297.776062,85.673248 298.740784,88.878670 
	C299.625580,91.818367 297.132294,95.961189 302.152466,97.415298 
	C302.599731,97.544846 302.431763,99.798424 302.614380,101.763191 
	C298.394867,101.763191 294.632294,101.870781 290.884521,101.683151 
	C290.010803,101.639404 288.553345,100.657562 288.485138,99.992455 
	C288.375183,98.920036 288.896637,97.445343 289.679321,96.681549 
	C292.133698,94.286415 293.156433,88.489601 290.791290,86.188164 
	C289.870300,85.292015 287.327484,85.156265 286.001373,85.747040 
	C281.402161,87.796013 281.039215,92.909340 284.667725,96.844063 
	C285.558624,97.810150 285.534637,99.619957 286.302460,102.372688 
	C280.049469,101.679108 274.922913,100.668640 269.796173,100.667793 
	C264.806091,100.666969 259.815887,101.699944 254.434830,102.324364 
	C254.248505,99.314270 252.665253,97.103287 256.601746,96.283951 
	C257.595276,96.077148 258.635376,93.221428 258.596619,91.608376 
	C258.540009,89.253677 257.818817,86.788025 256.824890,84.625183 
	C256.102020,83.052147 254.480316,81.892159 253.832092,79.837708 
	C258.386078,79.974052 263.029816,76.876068 266.549408,81.514404 
	C273.073059,77.416893 276.289215,77.607666 280.231476,81.447762 
	C285.550354,80.604218 289.844604,79.923180 294.466614,79.410629 
M274.975586,95.871437 
	C274.997284,93.087265 275.170105,90.291107 274.950867,87.526039 
	C274.882935,86.669029 273.859985,85.332474 273.086029,85.181679 
	C269.507019,84.484375 266.760010,86.296638 265.891846,89.536163 
	C265.109222,92.456566 264.303497,96.373619 268.990601,97.249390 
	C270.671173,97.563400 272.558716,96.769981 274.975586,95.871437 
z"/>
<path fill="#1B1B1B" opacity="1.000000" stroke="none" 
	d="
M226.820160,151.026413 
	C226.511322,152.839432 226.202499,154.652435 225.849731,156.723297 
	C221.442154,156.723297 217.029846,156.723297 211.274796,156.723297 
	C212.414566,154.584549 213.744675,153.098495 213.965622,151.462631 
	C214.418030,148.113297 215.583679,143.837433 214.065155,141.488434 
	C211.877869,138.104904 208.379257,140.959229 206.047989,142.984177 
	C203.844284,144.898315 204.488159,149.601685 206.444214,151.632248 
	C207.550095,152.780243 207.941788,154.616196 208.948227,156.769226 
	C203.154999,156.769226 198.570923,156.769226 193.664581,156.769226 
	C193.302002,154.301315 192.415329,152.148453 196.017349,151.327576 
	C196.860504,151.135391 197.777542,149.122116 197.817825,147.918472 
	C198.006882,142.270905 197.901886,136.613525 197.901886,130.650650 
	C196.950638,130.390564 195.781921,130.416245 195.250351,129.846970 
	C194.396118,128.932114 193.481781,127.609001 193.516830,126.487267 
	C193.541214,125.706749 195.009262,124.586967 196.019852,124.314812 
	C197.416611,123.938644 199.001816,124.338646 200.484848,124.190811 
	C203.752716,123.865059 205.030487,125.234810 204.797272,128.498459 
	C204.600204,131.256470 204.756699,134.039734 204.756699,136.635803 
	C205.369614,136.862015 205.568695,137.013168 205.675735,136.964005 
	C217.950516,131.325775 222.015121,133.824600 222.364029,147.593018 
	C222.440689,150.618332 223.533920,151.820053 226.590759,151.534317 
	C226.882004,151.080582 226.820175,151.026413 226.820160,151.026413 
z"/>
<path fill="#1D1D1D" opacity="1.000000" stroke="none" 
	d="
M226.832748,96.021523 
	C226.529907,97.683922 226.227081,99.346321 225.853455,101.397354 
	C221.546097,101.397354 217.160675,101.397354 211.401901,101.397354 
	C212.460358,99.419594 213.777832,97.979630 213.961517,96.407249 
	C214.375809,92.860252 215.583435,88.356339 213.961227,85.892235 
	C212.023865,82.949402 208.345505,85.339294 206.070938,87.753242 
	C203.874756,90.083977 204.458847,94.397301 206.752991,96.674355 
	C207.765076,97.678925 207.997757,99.468719 208.941528,101.775063 
	C203.818588,101.775063 199.870377,101.913277 195.945389,101.672714 
	C195.025269,101.616318 193.591614,100.362434 193.470215,99.506798 
	C193.345383,98.627129 194.537659,97.561417 195.151566,96.575851 
	C196.065872,95.108025 197.677460,93.679955 197.766129,92.163292 
	C198.085678,86.697296 197.891724,81.201286 197.891724,75.497681 
	C196.920227,75.157265 195.666275,75.104370 195.213028,74.474922 
	C194.386276,73.326714 194.034012,71.836861 193.483810,70.489532 
	C196.278809,70.035522 199.074814,69.281921 201.868256,69.291336 
	C202.835236,69.294594 204.485123,71.106560 204.626831,72.241714 
	C205.012589,75.331604 204.759384,78.501259 204.759384,82.108452 
	C207.016953,80.934883 208.744583,79.610413 210.685303,79.106339 
	C217.002487,77.465561 220.507034,79.666008 221.916794,86.046776 
	C222.377151,88.130447 222.544601,90.350266 222.402924,92.478317 
	C222.204117,95.464432 223.502182,96.780685 226.601562,96.517883 
	C226.890778,96.074532 226.832748,96.021523 226.832748,96.021523 
z"/>
<path fill="#171717" opacity="1.000000" stroke="none" 
	d="
M275.820374,134.362579 
	C282.856079,138.604538 285.461914,144.354126 282.501892,150.102997 
	C278.868256,157.160049 275.252747,158.836426 265.059753,156.226105 
	C263.789978,159.726959 264.579254,161.985016 268.880341,161.916718 
	C268.880341,163.694443 268.880341,165.150925 268.880341,167.148224 
	C266.264923,167.148224 263.830933,167.148224 261.396942,167.148224 
	C259.086395,167.148224 256.775879,167.148224 254.387894,167.148224 
	C252.857544,163.332596 253.933578,161.294937 258.218750,161.076172 
	C258.218750,154.888092 258.306061,148.909378 258.135468,142.938034 
	C258.105927,141.905823 257.114532,140.151016 256.342926,140.016357 
	C252.424210,139.332458 254.015198,136.868866 254.009354,134.351517 
	C258.046936,135.284195 262.439758,132.376022 264.870178,136.031540 
	C268.601868,135.415192 272.037750,134.847702 275.820374,134.362579 
M265.708923,150.525040 
	C267.125824,150.969193 268.816406,152.125763 269.902374,151.708557 
	C272.133545,150.851364 275.111633,149.541718 275.785889,147.690994 
	C276.484009,145.774658 275.495728,142.275467 273.961884,140.835754 
	C272.832794,139.775986 269.338257,140.291733 267.428375,141.209564 
	C263.716156,142.993591 264.002380,146.451385 265.708923,150.525040 
z"/>
<path fill="#171717" opacity="1.000000" stroke="none" 
	d="
M315.358093,78.794327 
	C317.573608,78.883293 319.538483,78.607803 321.196198,79.196800 
	C324.410980,80.339050 327.229645,82.309570 326.956909,86.265968 
	C326.685760,90.199814 323.740662,91.996780 320.325684,92.536156 
	C317.454254,92.989700 314.454224,92.629417 311.524231,92.629417 
	C313.001678,98.096489 317.533325,97.643959 325.187347,93.945168 
	C325.935120,95.233566 326.702759,96.556206 327.435608,97.818886 
	C321.533295,102.763245 314.938660,103.561417 309.358185,100.382576 
	C304.901489,97.843903 303.347015,93.884537 303.978302,89.105827 
	C304.772919,83.090599 309.789551,78.752464 315.358093,78.794327 
M312.414917,87.569901 
	C313.211151,87.739738 314.057587,88.169731 314.793640,88.027657 
	C316.568726,87.685028 318.292236,87.074913 320.036530,86.572670 
	C319.790833,85.851830 319.542358,84.508018 319.299957,84.509117 
	C317.431671,84.517578 315.537811,84.660812 313.712860,85.049011 
	C313.140533,85.170738 312.754669,86.169151 312.414917,87.569901 
z"/>
<path fill="#151515" opacity="1.000000" stroke="none" 
	d="
M226.908630,151.111877 
	C227.481995,146.546326 225.668427,141.505524 230.050415,137.666107 
	C234.032928,134.176697 238.456421,133.152710 243.420456,134.481705 
	C248.434814,135.824188 251.761368,139.719971 252.064743,144.710251 
	C252.356812,149.514755 250.593384,153.423553 246.260468,155.967896 
	C240.540955,159.326431 232.980301,157.244812 227.183594,150.887024 
	C226.820175,151.026413 226.882004,151.080582 226.908630,151.111877 
M245.188278,146.364731 
	C245.493317,142.261215 243.702423,138.983353 239.602325,139.412918 
	C237.397018,139.643997 234.159073,142.731171 233.862915,144.872116 
	C233.570740,146.984268 235.873413,150.616592 237.980209,151.638138 
	C241.492966,153.341385 244.283340,151.200623 245.188278,146.364731 
z"/>
<path fill="#151515" opacity="1.000000" stroke="none" 
	d="
M226.917786,96.103073 
	C226.963058,94.694199 227.150421,93.235138 226.969681,91.823196 
	C226.264420,86.313454 228.604553,81.659340 233.387390,80.160782 
	C237.385773,78.908005 242.528107,79.401726 246.598816,80.784912 
	C251.281784,82.376144 252.477631,87.215797 251.992645,91.989983 
	C251.491409,96.924217 248.577942,100.290306 243.934097,101.653992 
	C238.909454,103.129517 234.062744,102.426544 230.091736,98.585938 
	C229.149490,97.674629 228.373108,96.591843 227.176575,95.804733 
	C226.832748,96.021523 226.890778,96.074532 226.917786,96.103073 
M242.531082,84.938057 
	C239.446716,83.010872 236.933655,83.825203 234.869751,86.581039 
	C232.619308,89.585976 232.976349,92.753502 235.588791,94.985268 
	C237.041122,96.225975 239.937592,96.996277 241.673935,96.426537 
	C245.124252,95.294403 245.717255,91.958336 245.051712,88.648773 
	C244.809891,87.446205 243.890854,86.379837 242.531082,84.938057 
z"/>
<path fill="#A1A1A1" opacity="1.000000" stroke="none" 
	d="
M132.880310,66.834808 
	C130.404526,67.172813 127.986122,67.172813 125.567719,67.172813 
	C125.463707,66.510628 125.359688,65.848442 125.255669,65.186256 
	C128.211075,64.782196 131.166489,64.378136 134.570267,64.000740 
	C134.324982,64.850533 133.631332,65.673660 132.880310,66.834808 
z"/>
<path fill="#F3F3F3" opacity="1.000000" stroke="none" 
	d="
M127.212395,109.000076 
	C127.212395,132.115692 127.212395,154.731308 127.212395,177.572601 
	C123.060585,177.572601 119.450981,177.572601 115.044800,177.572601 
	C115.044800,172.996552 115.044388,168.416580 115.044899,163.836594 
	C115.045746,156.337051 114.964142,148.836197 115.084282,141.338562 
	C115.142303,137.717590 113.478523,136.190887 110.014328,136.205017 
	C102.348671,136.236298 94.681091,136.345139 87.017868,136.214050 
	C82.680183,136.139847 81.066399,138.178070 81.100967,142.291656 
	C81.183594,152.123703 80.879204,161.966339 81.245552,171.785507 
	C81.423676,176.559647 80.084267,178.563538 75.202667,177.840759 
	C73.425003,177.577545 71.575668,177.798370 69.230835,177.798370 
	C69.118126,175.955078 68.937531,174.370346 68.936691,172.785538 
	C68.920013,141.454132 69.013519,110.122192 68.823776,78.791939 
	C68.796600,74.304634 70.152634,73.192650 74.494354,73.252968 
	C91.789047,73.493248 109.089043,73.351974 127.212395,73.351974 
	C127.212395,85.309601 127.212395,96.904839 127.212395,109.000076 
M91.232460,107.916039 
	C88.785164,107.663727 86.342896,107.285919 83.889427,107.187576 
	C79.885017,107.027061 76.851479,108.513786 75.452118,112.580162 
	C73.823425,117.312920 74.906166,123.660858 77.842232,126.075722 
	C81.577477,129.147903 91.098938,128.599960 93.896660,125.151825 
	C97.497383,120.714012 96.460915,112.124260 91.232460,107.916039 
M74.870445,93.313057 
	C75.122635,101.580048 80.607346,103.296753 87.422989,102.870865 
	C93.706787,102.478203 96.322258,98.230156 95.811035,89.739044 
	C95.452415,83.782471 92.120239,81.656799 83.520409,81.898582 
	C77.384087,82.071106 74.876183,85.127113 74.870445,93.313057 
M105.049141,101.709404 
	C115.750931,105.304970 121.261398,101.645721 121.207695,90.979271 
	C121.176788,84.842438 119.122002,82.284081 113.924416,81.911125 
	C105.223427,81.286797 101.083511,83.531288 100.381508,89.739471 
	C99.889053,94.094543 100.414421,98.383408 105.049141,101.709404 
M116.313805,127.144669 
	C122.458321,125.199036 120.922050,119.979660 121.205948,115.571770 
	C121.476868,111.365166 119.505829,108.584747 115.465782,107.462715 
	C109.798363,105.888710 104.056770,107.435905 101.959335,110.947601 
	C99.399521,115.233452 99.469887,121.255585 102.739632,124.946571 
	C106.210350,128.864441 110.856430,128.576691 116.313805,127.144669 
z"/>
<path fill="#F8F8F8" opacity="1.000000" stroke="none" 
	d="
M134.530441,159.998856 
	C134.530411,145.541260 134.530411,131.583374 134.530411,117.283890 
	C142.430023,117.283890 150.161484,117.283890 158.341431,117.283890 
	C158.453140,118.506905 158.691223,119.912758 158.693344,121.318970 
	C158.719177,138.438797 158.576904,155.560471 158.805038,172.677277 
	C158.861542,176.916077 157.511261,178.094238 153.431061,177.874496 
	C147.336029,177.546249 141.210220,177.789276 134.530472,177.789276 
	C134.530472,171.712921 134.530472,166.105743 134.530441,159.998856 
M153.935974,130.887054 
	C153.989716,129.063995 154.012863,127.239418 154.103867,125.418228 
	C154.267914,122.135254 153.311584,119.383041 149.835175,118.608261 
	C146.077240,117.770721 142.096039,116.556770 138.854996,120.085144 
	C135.104523,124.168098 135.243561,130.702103 139.152756,134.278061 
	C142.869751,137.678207 149.621628,136.506744 153.935974,130.887054 
M150.715576,139.196350 
	C148.739334,139.037933 146.762497,138.738449 144.786942,138.746552 
	C137.815964,138.775177 134.060867,144.824127 136.891998,151.363037 
	C138.526291,155.137680 141.593704,157.255188 145.470734,156.419189 
	C148.404190,155.786652 152.519638,154.252838 153.428116,152.026260 
	C155.006561,148.157669 155.577469,143.239304 150.715576,139.196350 
z"/>
<path fill="#F1F1F1" opacity="1.000000" stroke="none" 
	d="
M108.482117,175.311707 
	C107.478256,176.439438 106.524628,177.678436 105.530006,177.712250 
	C99.920044,177.903046 94.300232,177.804382 88.383118,177.804382 
	C88.383118,166.265930 88.383118,155.069748 88.383118,143.310669 
	C94.189331,143.310669 99.964729,143.109009 105.700134,143.497604 
	C106.725548,143.567078 108.358887,146.058655 108.396240,147.466736 
	C108.638313,156.594589 108.516205,165.732086 108.482117,175.311707 
z"/>
<path fill="#E0E0E0" opacity="1.000000" stroke="none" 
	d="
M134.662460,108.537521 
	C134.001297,105.437340 134.953430,104.314911 137.912430,104.391663 
	C144.856934,104.571785 151.813416,104.325584 158.754807,104.558052 
	C160.119476,104.603760 161.438019,106.026825 162.777832,106.814651 
	C161.529465,107.677116 160.287109,109.272606 159.031738,109.282898 
	C150.968643,109.348969 142.902695,109.067680 134.662460,108.537521 
z"/>
<path fill="#515151" opacity="1.000000" stroke="none" 
	d="
M81.768585,59.820766 
	C72.618660,59.833969 71.905670,58.874268 73.857895,48.495544 
	C75.474472,48.994926 76.592842,49.500996 77.756050,50.433914 
	C77.800880,52.955151 77.800880,55.049526 77.800880,57.350067 
	C79.133072,56.342747 80.080559,55.626308 81.081345,55.273582 
	C81.345955,57.031784 81.557274,58.426273 81.768585,59.820766 
z"/>
<path fill="#232323" opacity="1.000000" stroke="none" 
	d="
M77.711220,50.007061 
	C76.592842,49.500996 75.474472,48.994926 74.180351,48.236019 
	C78.451447,47.745445 82.898277,47.507713 87.617538,47.857964 
	C87.846107,48.656460 87.802238,48.866978 87.415543,49.129879 
	C84.904053,50.383736 82.735405,51.585209 80.289444,52.940319 
	C79.495010,52.036488 78.603111,51.021774 77.711220,50.007061 
z"/>
<path fill="#A1A1A1" opacity="1.000000" stroke="none" 
	d="
M99.998749,65.875824 
	C105.813637,65.897263 111.129066,65.912643 116.444252,65.956528 
	C116.739128,65.958954 117.032051,66.197449 118.256767,66.733543 
	C104.797668,66.733543 92.267632,66.733543 79.737602,66.733543 
	C79.726036,66.447647 79.714470,66.161751 79.702904,65.875854 
	C86.301689,65.875854 92.900467,65.875854 99.998749,65.875824 
z"/>
<path fill="#232323" opacity="1.000000" stroke="none" 
	d="
M113.223152,59.802849 
	C109.058746,59.846191 104.894341,59.889534 100.384720,59.550423 
	C100.168976,58.729744 100.298454,58.291519 100.852135,57.896145 
	C105.201355,57.970688 109.126381,58.002377 113.044693,58.332714 
	C113.099709,59.021854 113.161430,59.412350 113.223152,59.802849 
z"/>
<path fill="#232323" opacity="1.000000" stroke="none" 
	d="
M119.052696,47.638992 
	C120.300095,47.513443 121.547493,47.387901 123.760017,47.165226 
	C122.074127,49.778084 121.088890,51.305042 119.681381,53.088249 
	C118.997437,53.366695 118.735779,53.388889 118.285599,53.231895 
	C117.714439,51.796970 117.331810,50.541229 117.328156,49.178284 
	C118.155655,48.593716 118.604179,48.116352 119.052696,47.638992 
z"/>
<path fill="#E0E0E0" opacity="1.000000" stroke="none" 
	d="
M110.082497,48.203220 
	C111.433281,48.119434 112.784065,48.035652 114.502922,48.227859 
	C114.870995,48.503857 114.939713,48.839012 114.598114,49.018936 
	C113.333633,51.144527 112.410736,53.090191 110.863136,56.352867 
	C110.460785,52.809917 110.241982,50.883175 110.090759,48.772285 
	C110.158340,48.588135 110.082497,48.203220 110.082497,48.203220 
z"/>
<path fill="#515151" opacity="1.000000" stroke="none" 
	d="
M95.769562,59.820198 
	C94.506844,59.818996 93.244118,59.817795 91.504555,59.509514 
	C90.951622,58.771183 90.875542,58.339931 91.054428,57.629910 
	C92.922920,57.543709 94.536446,57.736271 96.115570,58.250061 
	C95.977310,58.987598 95.873436,59.403900 95.769562,59.820198 
z"/>
<path fill="#515151" opacity="1.000000" stroke="none" 
	d="
M118.474121,53.411079 
	C118.735779,53.388889 118.997437,53.366695 119.643829,53.429104 
	C120.028564,53.513702 120.133354,53.726326 120.040161,54.222336 
	C120.378334,55.481178 120.809685,56.244011 121.241043,57.006844 
	C121.680618,57.362705 122.120193,57.718567 122.559761,58.074432 
	C121.332329,58.636349 120.104897,59.198265 118.441628,59.475037 
	C117.899452,58.752766 117.793106,58.315643 117.868080,57.533867 
	C118.190971,55.929836 118.332542,54.670460 118.474121,53.411079 
z"/>
<path fill="#868686" opacity="1.000000" stroke="none" 
	d="
M93.982666,48.061913 
	C98.693245,48.024647 103.403816,47.987381 108.581161,48.219162 
	C109.047920,48.488213 109.034492,48.840424 108.573677,48.934555 
	C103.401276,48.989185 98.689690,48.949688 93.979340,48.698120 
	C93.980568,48.486053 93.982666,48.061913 93.982666,48.061913 
z"/>
<path fill="#515151" opacity="1.000000" stroke="none" 
	d="
M100.427933,57.853294 
	C100.298454,58.291519 100.168976,58.729744 99.910301,59.483772 
	C99.436920,59.801456 99.092735,59.803329 98.388977,59.504135 
	C97.959190,58.774834 97.888985,58.346596 97.880028,57.514717 
	C98.131912,55.773487 98.322548,54.435902 98.513184,53.098316 
	C98.915581,53.146553 99.317986,53.194786 99.720390,53.243023 
	C99.956238,54.779778 100.192085,56.316536 100.427933,57.853294 
z"/>
<path fill="#232323" opacity="1.000000" stroke="none" 
	d="
M82.200607,59.878986 
	C81.557274,58.426273 81.345955,57.031784 81.297600,55.109776 
	C82.640533,55.721611 83.820503,56.860962 84.969467,58.306076 
	C85.033180,59.007576 85.127899,59.403313 85.222618,59.799046 
	C84.359283,59.845100 83.495956,59.891151 82.200607,59.878986 
z"/>
<path fill="#515151" opacity="1.000000" stroke="none" 
	d="
M85.540268,59.808140 
	C85.127899,59.403313 85.033180,59.007576 85.266083,58.185867 
	C86.505630,57.796825 87.417549,57.833759 88.244354,58.199230 
	C88.031952,58.960884 87.904671,59.394005 87.777390,59.827122 
	C87.137566,59.823826 86.497742,59.820530 85.540268,59.808140 
z"/>
<path fill="#A1A1A1" opacity="1.000000" stroke="none" 
	d="
M93.563721,47.952927 
	C93.982666,48.061913 93.980568,48.486053 93.624985,48.803688 
	C92.535957,49.211342 91.802513,49.301361 90.689476,49.254093 
	C89.505585,49.145222 88.701302,49.173637 87.899689,49.129364 
	C87.902359,49.056675 87.758377,49.077499 87.758377,49.077499 
	C87.802238,48.866978 87.846107,48.656460 87.927628,48.125290 
	C89.691788,47.817738 91.418282,47.830837 93.563721,47.952927 
z"/>
<path fill="#515151" opacity="1.000000" stroke="none" 
	d="
M113.481110,59.808052 
	C113.161430,59.412350 113.099709,59.021854 113.216774,58.135475 
	C113.976219,57.736835 114.556870,57.834080 115.098480,58.251808 
	C114.964722,58.990467 114.870010,59.408646 114.775299,59.826828 
	C114.429886,59.822304 114.084480,59.817780 113.481110,59.808052 
z"/>
<path fill="#232323" opacity="1.000000" stroke="none" 
	d="
M88.206329,59.885750 
	C87.904671,59.394005 88.031952,58.960884 88.550179,58.225895 
	C89.560570,57.918907 90.180008,57.913792 90.799454,57.908676 
	C90.875542,58.339931 90.951622,58.771183 91.125710,59.514671 
	C90.360893,59.866066 89.498085,59.905220 88.206329,59.885750 
z"/>
<path fill="#232323" opacity="1.000000" stroke="none" 
	d="
M115.204491,59.885506 
	C114.870010,59.408646 114.964722,58.990467 115.416992,58.261158 
	C116.411957,57.926189 117.049355,57.902351 117.686760,57.878517 
	C117.793106,58.315643 117.899452,58.752766 118.114456,59.508118 
	C117.359970,59.865623 116.496826,59.904903 115.204491,59.885506 
z"/>
<path fill="#232323" opacity="1.000000" stroke="none" 
	d="
M97.818779,57.918362 
	C97.888985,58.346596 97.959190,58.774834 98.129639,59.511581 
	C97.682991,59.857754 97.136101,59.895412 96.179382,59.876633 
	C95.873436,59.403900 95.977310,58.987598 96.393234,58.266815 
	C97.076462,57.947678 97.447617,57.933022 97.818779,57.918362 
z"/>
<path fill="#A1A1A1" opacity="1.000000" stroke="none" 
	d="
M114.939713,48.839012 
	C114.939713,48.839012 114.870995,48.503857 114.897629,48.334885 
	C116.025742,48.035442 117.127228,47.904972 118.640701,47.706749 
	C118.604179,48.116352 118.155655,48.593716 116.993698,49.097427 
	C115.833420,49.028854 115.386566,48.933933 114.939713,48.839012 
z"/>
<path fill="#A1A1A1" opacity="1.000000" stroke="none" 
	d="
M121.155891,56.659275 
	C120.809685,56.244011 120.378334,55.481178 119.975777,54.321842 
	C120.359970,54.720795 120.715355,55.516247 121.155891,56.659275 
z"/>
<path fill="#A1A1A1" opacity="1.000000" stroke="none" 
	d="
M109.034492,48.840424 
	C109.034492,48.840424 109.047920,48.488213 109.041962,48.312283 
	C109.213844,48.093727 109.391701,48.051102 109.826019,48.105846 
	C110.082497,48.203220 110.158340,48.588135 109.837524,48.794987 
	C109.355972,48.948032 109.195236,48.894230 109.034492,48.840424 
z"/>
<path fill="#F1F1F1" opacity="1.000000" stroke="none" 
	d="
M274.663696,96.176712 
	C272.558716,96.769981 270.671173,97.563400 268.990601,97.249390 
	C264.303497,96.373619 265.109222,92.456566 265.891846,89.536163 
	C266.760010,86.296638 269.507019,84.484375 273.086029,85.181679 
	C273.859985,85.332474 274.882935,86.669029 274.950867,87.526039 
	C275.170105,90.291107 274.997284,93.087265 274.663696,96.176712 
z"/>
<path fill="#EDEDED" opacity="1.000000" stroke="none" 
	d="
M265.450317,150.187347 
	C264.002380,146.451385 263.716156,142.993591 267.428375,141.209564 
	C269.338257,140.291733 272.832794,139.775986 273.961884,140.835754 
	C275.495728,142.275467 276.484009,145.774658 275.785889,147.690994 
	C275.111633,149.541718 272.133545,150.851364 269.902374,151.708557 
	C268.816406,152.125763 267.125824,150.969193 265.450317,150.187347 
z"/>
<path fill="#D3D3D3" opacity="1.000000" stroke="none" 
	d="
M312.349182,87.168091 
	C312.754669,86.169151 313.140533,85.170738 313.712860,85.049011 
	C315.537811,84.660812 317.431671,84.517578 319.299957,84.509117 
	C319.542358,84.508018 319.790833,85.851830 320.036530,86.572662 
	C318.292236,87.074913 316.568726,87.685028 314.793640,88.027657 
	C314.057587,88.169731 313.211151,87.739738 312.349182,87.168091 
z"/>
<path fill="#EAEAEA" opacity="1.000000" stroke="none" 
	d="
M245.166382,146.783783 
	C244.283340,151.200623 241.492966,153.341385 237.980209,151.638138 
	C235.873413,150.616592 233.570740,146.984268 233.862915,144.872116 
	C234.159073,142.731171 237.397018,139.643997 239.602325,139.412918 
	C243.702423,138.983353 245.493317,142.261215 245.166382,146.783783 
z"/>
<path fill="#EAEAEA" opacity="1.000000" stroke="none" 
	d="
M242.905945,85.094696 
	C243.890854,86.379837 244.809891,87.446205 245.051712,88.648773 
	C245.717255,91.958336 245.124252,95.294403 241.673935,96.426537 
	C239.937592,96.996277 237.041122,96.225975 235.588791,94.985268 
	C232.976349,92.753502 232.619308,89.585976 234.869751,86.581039 
	C236.933655,83.825203 239.446716,83.010872 242.905945,85.094696 
z"/>
<path fill="#1E1E1E" opacity="1.000000" stroke="none" 
	d="
M91.554382,108.162125 
	C96.460915,112.124260 97.497383,120.714012 93.896660,125.151825 
	C91.098938,128.599960 81.577477,129.147903 77.842232,126.075722 
	C74.906166,123.660858 73.823425,117.312920 75.452118,112.580162 
	C76.851479,108.513786 79.885017,107.027061 83.889427,107.187576 
	C86.342896,107.285919 88.785164,107.663727 91.554382,108.162125 
M88.915871,113.416008 
	C87.792824,113.130814 86.681335,112.668640 85.544502,112.594353 
	C82.414360,112.389778 80.595497,113.440979 80.635925,117.107826 
	C80.672638,120.437355 81.182732,122.554665 85.197121,122.421700 
	C90.084145,122.259827 90.624054,121.401817 88.915871,113.416008 
z"/>
<path fill="#1C1C1C" opacity="1.000000" stroke="none" 
	d="
M74.866562,92.880768 
	C74.876183,85.127113 77.384087,82.071106 83.520409,81.898582 
	C92.120239,81.656799 95.452415,83.782471 95.811035,89.739044 
	C96.322258,98.230156 93.706787,102.478203 87.422989,102.870865 
	C80.607346,103.296753 75.122635,101.580048 74.866562,92.880768 
M80.724373,91.451851 
	C81.233490,93.219070 81.299797,96.093788 82.347939,96.512871 
	C84.271133,97.281822 88.146294,97.401428 88.750298,96.362755 
	C90.038300,94.147850 89.754860,91.019112 90.184914,87.733055 
	C86.200211,88.482262 82.240501,85.104523 80.724373,91.451851 
z"/>
<path fill="#1C1C1C" opacity="1.000000" stroke="none" 
	d="
M104.702637,101.532730 
	C100.414421,98.383408 99.889053,94.094543 100.381508,89.739471 
	C101.083511,83.531288 105.223427,81.286797 113.924416,81.911125 
	C119.122002,82.284081 121.176788,84.842438 121.207695,90.979271 
	C121.261398,101.645721 115.750931,105.304970 104.702637,101.532730 
M114.951706,96.128502 
	C115.084099,93.433662 115.216492,90.738823 115.351410,87.992630 
	C113.100395,87.789322 111.637955,87.608459 110.170151,87.535065 
	C107.329315,87.393028 106.079895,88.591515 106.082283,91.625053 
	C106.086472,96.955498 106.446365,97.289009 114.951706,96.128502 
z"/>
<path fill="#1B1B1B" opacity="1.000000" stroke="none" 
	d="
M115.905426,127.237869 
	C110.856430,128.576691 106.210350,128.864441 102.739632,124.946571 
	C99.469887,121.255585 99.399521,115.233452 101.959335,110.947601 
	C104.056770,107.435905 109.798363,105.888710 115.465782,107.462715 
	C119.505829,108.584747 121.476868,111.365166 121.205948,115.571770 
	C120.922050,119.979660 122.458321,125.199036 115.905426,127.237869 
M109.714684,112.421570 
	C105.155090,112.922684 105.876953,116.466125 106.279907,119.221642 
	C106.458542,120.443176 108.398010,122.134903 109.707336,122.304085 
	C112.058899,122.607941 115.391281,123.416512 115.649193,119.240982 
	C115.877121,115.551071 115.608719,112.132904 109.714684,112.421570 
z"/>
<path fill="#131313" opacity="1.000000" stroke="none" 
	d="
M153.875854,131.310516 
	C149.621628,136.506744 142.869751,137.678207 139.152756,134.278061 
	C135.243561,130.702103 135.104523,124.168098 138.854996,120.085144 
	C142.096039,116.556770 146.077240,117.770721 149.835175,118.608261 
	C153.311584,119.383041 154.267914,122.135254 154.103867,125.418228 
	C154.012863,127.239418 153.989716,129.063995 153.875854,131.310516 
M144.477707,123.982010 
	C139.815720,124.660652 142.749649,127.712502 142.280533,129.674728 
	C144.547836,129.674728 146.435822,129.674728 148.417053,129.674728 
	C148.488098,126.858246 150.051331,123.664131 144.477707,123.982010 
z"/>
<path fill="#1A1A1A" opacity="1.000000" stroke="none" 
	d="
M151.046539,139.478058 
	C155.577469,143.239304 155.006561,148.157669 153.428116,152.026260 
	C152.519638,154.252838 148.404190,155.786652 145.470734,156.419189 
	C141.593704,157.255188 138.526291,155.137680 136.891998,151.363037 
	C134.060867,144.824127 137.815964,138.775177 144.786942,138.746552 
	C146.762497,138.738449 148.739334,139.037933 151.046539,139.478058 
M146.874039,144.191208 
	C145.319931,144.304779 143.765839,144.418335 141.969971,144.549576 
	C142.072876,146.835693 142.151825,148.589874 142.242889,150.612885 
	C144.292709,150.612885 146.030945,150.612885 148.541626,150.612885 
	C148.202133,148.460159 147.894012,146.506485 146.874039,144.191208 
z"/>
<path fill="#0B0B0B" opacity="1.000000" stroke="none" 
	d="
M108.573677,48.934555 
	C109.195236,48.894230 109.355972,48.948032 109.769943,48.979134 
	C110.241982,50.883175 110.460785,52.809917 110.863136,56.352867 
	C112.410736,53.090191 113.333633,51.144527 114.598114,49.018936 
	C115.386566,48.933933 115.833420,49.028854 116.614731,49.204632 
	C117.331810,50.541229 117.714439,51.796970 118.285599,53.231895 
	C118.332542,54.670460 118.190971,55.929836 117.868080,57.533867 
	C117.049355,57.902351 116.411957,57.926189 115.456039,57.940674 
	C114.556870,57.834080 113.976219,57.736835 113.223480,57.836830 
	C109.126381,58.002377 105.201355,57.970688 100.852135,57.896145 
	C100.192085,56.316536 99.956238,54.779778 99.720390,53.243023 
	C99.317986,53.194786 98.915581,53.146553 98.513184,53.098316 
	C98.322548,54.435902 98.131912,55.773487 97.880028,57.514717 
	C97.447617,57.933022 97.076462,57.947678 96.427635,57.945583 
	C94.536446,57.736271 92.922920,57.543709 91.054428,57.629910 
	C90.180008,57.913792 89.560570,57.918907 88.635300,57.897358 
	C87.417549,57.833759 86.505630,57.796825 85.297089,57.880100 
	C83.820503,56.860962 82.640533,55.721611 81.244308,54.746063 
	C80.080559,55.626308 79.133072,56.342747 77.800880,57.350067 
	C77.800880,55.049526 77.800880,52.955151 77.756050,50.433914 
	C78.603111,51.021774 79.495010,52.036488 80.289444,52.940319 
	C82.735405,51.585209 84.904053,50.383736 87.415543,49.129879 
	C87.758377,49.077499 87.902359,49.056675 87.920349,49.479107 
	C88.473633,50.911121 89.008934,51.920704 90.243607,54.249306 
	C90.701973,51.551777 90.885529,50.471577 91.069077,49.391380 
	C91.802513,49.301361 92.535957,49.211342 93.623749,49.015759 
	C98.689690,48.949688 103.401276,48.989185 108.573677,48.934555 
z"/>
<path fill="#232323" opacity="1.000000" stroke="none" 
	d="
M90.689476,49.254089 
	C90.885529,50.471577 90.701973,51.551777 90.243607,54.249306 
	C89.008934,51.920704 88.473633,50.911121 87.917679,49.551796 
	C88.701302,49.173637 89.505585,49.145222 90.689476,49.254089 
z"/>
<path fill="#EAEAEA" opacity="1.000000" stroke="none" 
	d="
M89.238495,113.722046 
	C90.624054,121.401817 90.084145,122.259827 85.197121,122.421700 
	C81.182732,122.554665 80.672638,120.437355 80.635925,117.107826 
	C80.595497,113.440979 82.414360,112.389778 85.544502,112.594353 
	C86.681335,112.668640 87.792824,113.130814 89.238495,113.722046 
z"/>
<path fill="#EDEDED" opacity="1.000000" stroke="none" 
	d="
M80.730667,90.982620 
	C82.240501,85.104523 86.200211,88.482262 90.184914,87.733055 
	C89.754860,91.019112 90.038300,94.147850 88.750298,96.362755 
	C88.146294,97.401428 84.271133,97.281822 82.347939,96.512871 
	C81.299797,96.093788 81.233490,93.219070 80.730667,90.982620 
z"/>
<path fill="#EDEDED" opacity="1.000000" stroke="none" 
	d="
M114.641617,96.475800 
	C106.446365,97.289009 106.086472,96.955498 106.082283,91.625053 
	C106.079895,88.591515 107.329315,87.393028 110.170151,87.535065 
	C111.637955,87.608459 113.100395,87.789322 115.351410,87.992630 
	C115.216492,90.738823 115.084099,93.433662 114.641617,96.475800 
z"/>
<path fill="#E0E0E0" opacity="1.000000" stroke="none" 
	d="
M110.109482,112.418762 
	C115.608719,112.132904 115.877121,115.551071 115.649193,119.240982 
	C115.391281,123.416512 112.058899,122.607941 109.707336,122.304085 
	C108.398010,122.134903 106.458542,120.443176 106.279907,119.221642 
	C105.876953,116.466125 105.155090,112.922684 110.109482,112.418762 
z"/>
<path fill="#EAEAEA" opacity="1.000000" stroke="none" 
	d="
M144.917328,123.946465 
	C150.051331,123.664131 148.488098,126.858246 148.417053,129.674728 
	C146.435822,129.674728 144.547836,129.674728 142.280533,129.674728 
	C142.749649,127.712502 139.815720,124.660652 144.917328,123.946465 
z"/>
<path fill="#D3D3D3" opacity="1.000000" stroke="none" 
	d="
M147.229980,144.372009 
	C147.894012,146.506485 148.202133,148.460159 148.541626,150.612885 
	C146.030945,150.612885 144.292709,150.612885 142.242889,150.612885 
	C142.151825,148.589874 142.072876,146.835693 141.969971,144.549576 
	C143.765839,144.418335 145.319931,144.304779 147.229980,144.372009 
z"/>
</svg>